<?xml version="1.0" encoding="UTF-8"?>
<svg fill="none" viewBox="0 0 1440 1024" xmlns="http://www.w3.org/2000/svg">
<g clip-path="url(#v)">
<path d="M0 0h1440v1024H0z" fill="#fff"/>
<path d="M1440 0H0v1024h1440V0Z" fill="url(#u)" fill-opacity=".73"/>
<mask id="t" fill="#fff">
<path d="m346.58 487.09c-7.778-14.385-22.502-24.09-39.386-24.09s-31.608 9.705-39.386 24.09c-22.426 2.823-39.809 22.861-39.809 47.16 0 24.63 17.86 44.882 40.729 47.265v0.235h126.71v-0.95c20.656-4.401 36.203-23.57 36.203-46.55 0-26.234-20.261-47.5-45.254-47.5-8.243 0-15.971 2.313-22.627 6.355-5.168-3.138-10.983-5.234-17.182-6.015z" clip-rule="evenodd" fill-rule="evenodd"/>
</mask>
<path d="m346.58 487.09c-7.778-14.385-22.502-24.09-39.386-24.09s-31.608 9.705-39.386 24.09c-22.426 2.823-39.809 22.861-39.809 47.16 0 24.63 17.86 44.882 40.729 47.265v0.235h126.71v-0.95c20.656-4.401 36.203-23.57 36.203-46.55 0-26.234-20.261-47.5-45.254-47.5-8.243 0-15.971 2.313-22.627 6.355-5.168-3.138-10.983-5.234-17.182-6.015z" clip-rule="evenodd" fill="#fff" fill-rule="evenodd"/>
<path d="m346.581 487.09-.88.476.245.452.51.064.125-.992Zm-78.772 0 .125.992.51-.064.245-.452-.88-.476Zm.92 94.425h1v-.901l-.897-.093-.103.994Zm0 .235h-1v1h1v-1Zm126.712 0v1h1v-1h-1Zm0-.95-.209-.978-.791.168v.81h1Zm-31.678-87.695-.519.854.519.316.519-.316-.519-.854ZM307.195 464c16.485 0 30.888 9.475 38.506 23.566l1.759-.951C339.524 471.935 324.478 462 307.195 462v2Zm-38.506 23.566C276.307 473.475 290.71 464 307.195 464v-2c-17.283 0-32.329 9.935-40.266 24.615l1.76.951ZM229 534.25c0-23.827 17.039-43.412 38.934-46.168l-.25-1.984C244.728 488.988 227 509.478 227 534.25h2Zm39.832 46.271C246.507 578.194 229 558.402 229 534.25h-2c0 25.109 18.214 45.82 41.625 48.26l.207-1.989Zm.897 1.229v-.235h-2v.235h2Zm3.525-1h-4.525v2h4.525v-2Zm67.882 0h-67.882v2h67.882v-2Zm45.254 0h-45.254v2h45.254v-2Zm9.051 0h-9.051v2h9.051v-2Zm-1 .05v.95h2v-.95h-2Zm36.203-46.55c0 22.531-15.239 41.274-35.412 45.572l.417 1.956c21.14-4.504 36.995-24.099 36.995-47.528h-2Zm-44.254-46.5c24.396 0 44.254 20.773 44.254 46.5h2c0-26.74-20.664-48.5-46.254-48.5v2Zm-22.108 6.209c6.506-3.95 14.055-6.209 22.108-6.209v-2c-8.433 0-16.34 2.367-23.146 6.5l1.038 1.709Zm-17.826-5.877c6.055.763 11.736 2.81 16.788 5.877l1.038-1.709c-5.284-3.209-11.232-5.353-17.576-6.152l-.25 1.984Z" fill="#CBCBCB" mask="url(#t)"/>
<mask id="s" fill="#fff">
<path d="M601.347 624.5c0 5.077-1.379 9.816-3.767 13.826a26.204 26.204 0 0 1 2.656 3.907 23.888 23.888 0 0 1 12.425-3.483c13.746 0 24.89 11.697 24.89 26.125S626.407 691 612.661 691a23.79 23.79 0 0 1-7.441-1.188h-64.313a23.786 23.786 0 0 1-7.441 1.188c-13.746 0-24.89-11.697-24.89-26.125 0-13.619 9.928-24.804 22.602-26.016 3.641-8.146 11.355-13.887 20.39-14.331v-.028c0-14.428 11.143-26.125 24.89-26.125 13.746 0 24.889 11.697 24.889 26.125Z" clip-rule="evenodd" fill-rule="evenodd"/>
</mask>
<path d="M601.347 624.5c0 5.077-1.379 9.816-3.767 13.826a26.204 26.204 0 0 1 2.656 3.907 23.888 23.888 0 0 1 12.425-3.483c13.746 0 24.89 11.697 24.89 26.125S626.407 691 612.661 691a23.79 23.79 0 0 1-7.441-1.188h-64.313a23.786 23.786 0 0 1-7.441 1.188c-13.746 0-24.89-11.697-24.89-26.125 0-13.619 9.928-24.804 22.602-26.016 3.641-8.146 11.355-13.887 20.39-14.331v-.028c0-14.428 11.143-26.125 24.89-26.125 13.746 0 24.889 11.697 24.889 26.125Z" clip-rule="evenodd" fill="#fff" fill-rule="evenodd"/>
<path d="m597.58 638.326-.859-.512-.359.604.445.543.773-.635Zm2.656 3.907-.874.486.504.907.888-.538-.518-.855Zm4.984 47.579.312-.95-.152-.05h-.16v1Zm-64.313 0v-1h-.16l-.152.05.312.95Zm-9.729-50.953.095.995.58-.055.238-.532-.913-.408Zm20.39-14.331.049.999.951-.047v-.953l-1 .001Zm0-.028h-1v.001l1-.001Zm46.871 14.338c2.479-4.163 3.908-9.078 3.908-14.338h-2c0 4.894-1.329 9.457-3.626 13.314l1.718 1.024Zm2.671 2.909a27.256 27.256 0 0 0-2.757-4.056l-1.546 1.27a25.151 25.151 0 0 1 2.555 3.758l1.748-.972Zm11.551-3.997a24.874 24.874 0 0 0-12.943 3.628l1.036 1.71a22.89 22.89 0 0 1 11.907-3.338v-2Zm25.89 27.125c0-14.935-11.546-27.125-25.89-27.125v2c13.149 0 23.89 11.203 23.89 25.125h2ZM612.661 692c14.344 0 25.89-12.19 25.89-27.125h-2c0 13.922-10.741 25.125-23.89 25.125v2Zm-7.753-1.237a24.804 24.804 0 0 0 7.753 1.237v-2c-2.484 0-4.878-.398-7.129-1.138l-.624 1.901Zm.312-1.951h-64.313v2h64.313v-2ZM533.466 692c2.7 0 5.304-.433 7.753-1.237l-.624-1.901a22.772 22.772 0 0 1-7.129 1.138v2Zm-25.89-27.125c0 14.935 11.546 27.125 25.89 27.125v-2c-13.149 0-23.89-11.203-23.89-25.125h-2Zm23.507-27.012c-13.221 1.265-23.507 12.913-23.507 27.012h2c0-13.138 9.571-23.861 21.697-25.021l-.19-1.991Zm20.436-14.334c-9.442.465-17.473 6.462-21.254 14.922l1.826.816c3.5-7.831 10.899-13.316 19.526-13.74l-.098-1.998Zm-.951.972v.027l2-.001v-.028l-2 .002Zm25.89-27.126c-14.344 0-25.89 12.19-25.89 27.125h2c0-13.922 10.741-25.125 23.89-25.125v-2Zm25.889 27.125c0-14.935-11.546-27.125-25.889-27.125v2c13.149 0 23.889 11.203 23.889 25.125h2Z" fill="#CBCBCB" mask="url(#s)"/>
<mask id="r" fill="#fff">
<path d="M687.331 451.125c0 .328.005.654.017.978a24.434 24.434 0 0 0-9.068 4.994c-4.304-3.731-9.822-5.972-15.839-5.972-13.747 0-24.89 11.697-24.89 26.125 0 12.806 8.779 23.461 20.364 25.694v.431h88.246v-1.781c9.271-3.8 15.839-13.267 15.839-24.344 0-1.622-.141-3.21-.41-4.75.269-1.54.41-3.128.41-4.75 0-14.428-11.144-26.125-24.89-26.125-.563 0-1.121.02-1.675.058-3.606-9.762-12.64-16.683-23.215-16.683-13.746 0-24.889 11.697-24.889 26.125Z" clip-rule="evenodd" fill-rule="evenodd"/>
</mask>
<path d="M687.331 451.125c0 .328.005.654.017.978a24.434 24.434 0 0 0-9.068 4.994c-4.304-3.731-9.822-5.972-15.839-5.972-13.747 0-24.89 11.697-24.89 26.125 0 12.806 8.779 23.461 20.364 25.694v.431h88.246v-1.781c9.271-3.8 15.839-13.267 15.839-24.344 0-1.622-.141-3.21-.41-4.75.269-1.54.41-3.128.41-4.75 0-14.428-11.144-26.125-24.89-26.125-.563 0-1.121.02-1.675.058-3.606-9.762-12.64-16.683-23.215-16.683-13.746 0-24.889 11.697-24.889 26.125Z" clip-rule="evenodd" fill="#fff" fill-rule="evenodd"/>
<path d="m687.348 452.103.284.959.742-.22-.027-.774-.999.035Zm-9.068 4.994-.655.755.655.568.655-.568-.655-.755Zm-20.365 45.847h1v-.825l-.81-.157-.19.982Zm0 .431h-1v1h1v-1Zm88.246 0v1h1v-1h-1Zm0-1.781-.379-.925-.621.254v.671h1ZM761.59 472.5l-.985-.172-.031.172.031.172.985-.172Zm-26.155-30.817-.938.347.26.703.748-.052-.07-.998Zm-47.088 10.385a26.836 26.836 0 0 1-.016-.943h-2c0 .339.005.677.017 1.013l1.999-.07Zm-9.412 5.784a23.455 23.455 0 0 1 8.697-4.79l-.568-1.918a25.447 25.447 0 0 0-9.439 5.197l1.31 1.511Zm-16.494-5.727c5.762 0 11.051 2.145 15.184 5.727l1.31-1.511c-4.475-3.879-10.223-6.216-16.494-6.216v2Zm-23.89 25.125c0-13.922 10.741-25.125 23.89-25.125v-2c-14.344 0-25.89 12.19-25.89 27.125h2Zm19.554 24.712c-11.091-2.138-19.554-12.36-19.554-24.712h-2c0 13.261 9.095 24.347 21.175 26.676l.379-1.964Zm.81 1.413v-.431h-2v.431h2Zm3.526-1h-4.526v2h4.526v-2Zm31.678 0h-31.678v2h31.678v-2Zm42.991 0h-42.991v2h42.991v-2Zm9.051 0h-9.051v2h9.051v-2Zm-1-.781v1.781h2v-1.781h-2ZM761 477.25c0 10.68-6.331 19.776-15.218 23.419l.758 1.85c9.655-3.957 16.46-13.795 16.46-25.269h-2Zm-.395-4.578c.259 1.484.395 3.014.395 4.578h2c0-1.68-.146-3.325-.425-4.922l-1.97.344Zm.395-4.922c0 1.564-.136 3.094-.395 4.578l1.97.344c.279-1.597.425-3.242.425-4.922h-2Zm-23.89-25.125c13.149 0 23.89 11.203 23.89 25.125h2c0-14.935-11.546-27.125-25.89-27.125v2Zm-1.605.056a23.04 23.04 0 0 1 1.605-.056v-2c-.586 0-1.168.02-1.745.061l.14 1.995ZM712.22 426c10.119 0 18.802 6.624 22.277 16.03l1.876-.693C732.635 431.218 723.251 424 712.22 424v2Zm-23.889 25.125c0-13.922 10.74-25.125 23.889-25.125v-2c-14.343 0-25.889 12.19-25.889 27.125h2Z" fill="#CBCBCB" mask="url(#r)"/>
<mask id="q" fill="#fff">
<path d="m448.58 225.09c-7.778-14.385-22.502-24.09-39.386-24.09s-31.608 9.705-39.386 24.09c-22.426 2.823-39.809 22.861-39.809 47.16 0 24.63 17.86 44.882 40.729 47.265v0.235h126.71v-0.95c20.656-4.401 36.203-23.57 36.203-46.55 0-26.234-20.261-47.5-45.254-47.5-8.243 0-15.971 2.313-22.627 6.355-5.168-3.138-10.983-5.234-17.182-6.015z" clip-rule="evenodd" fill-rule="evenodd"/>
</mask>
<path d="m448.58 225.09c-7.778-14.385-22.502-24.09-39.386-24.09s-31.608 9.705-39.386 24.09c-22.426 2.823-39.809 22.861-39.809 47.16 0 24.63 17.86 44.882 40.729 47.265v0.235h126.71v-0.95c20.656-4.401 36.203-23.57 36.203-46.55 0-26.234-20.261-47.5-45.254-47.5-8.243 0-15.971 2.313-22.627 6.355-5.168-3.138-10.983-5.234-17.182-6.015z" clip-rule="evenodd" fill="#fff" fill-rule="evenodd"/>
<path d="m448.581 225.09-.88.476.245.452.51.064.125-.992Zm-78.772 0 .125.992.51-.064.245-.452-.88-.476Zm.92 94.425h1v-.901l-.897-.093-.103.994Zm0 .235h-1v1h1v-1Zm126.712 0v1h1v-1h-1Zm0-.95-.209-.978-.791.168v.81h1Zm-31.678-87.695-.519.854.519.316.519-.316-.519-.854ZM409.195 202c16.485 0 30.888 9.475 38.506 23.566l1.759-.951C441.524 209.935 426.478 200 409.195 200v2Zm-38.506 23.566C378.307 211.475 392.71 202 409.195 202v-2c-17.283 0-32.329 9.935-40.266 24.615l1.76.951ZM331 272.25c0-23.827 17.039-43.412 38.934-46.168l-.25-1.984C346.728 226.988 329 247.478 329 272.25h2Zm39.832 46.271C348.507 316.194 331 296.402 331 272.25h-2c0 25.109 18.214 45.82 41.625 48.26l.207-1.989Zm.897 1.229v-.235h-2v.235h2Zm3.525-1h-4.525v2h4.525v-2Zm67.882 0h-67.882v2h67.882v-2Zm45.254 0h-45.254v2h45.254v-2Zm9.051 0h-9.051v2h9.051v-2Zm-1 .05v.95h2v-.95h-2Zm36.203-46.55c0 22.531-15.239 41.274-35.412 45.572l.417 1.956c21.14-4.504 36.995-24.099 36.995-47.528h-2Zm-44.254-46.5c24.396 0 44.254 20.773 44.254 46.5h2c0-26.74-20.664-48.5-46.254-48.5v2Zm-22.108 6.209c6.506-3.95 14.055-6.209 22.108-6.209v-2c-8.433 0-16.34 2.367-23.146 6.5l1.038 1.709Zm-17.826-5.877c6.055.763 11.736 2.81 16.788 5.877l1.038-1.709c-5.284-3.209-11.232-5.353-17.576-6.152l-.25 1.984Z" fill="#CBCBCB" mask="url(#q)"/>
<mask id="p" fill="#fff">
<path d="m703.77 240.12c0 5.077-1.38 9.816-3.767 13.826a26.28 26.28 0 0 1 2.656 3.907 23.885 23.885 0 0 1 12.425-3.483c13.746 0 24.89 11.697 24.89 26.125s-11.144 26.125-24.89 26.125c-2.592 0-5.092-0.416-7.441-1.187h-64.313a23.819 23.819 0 0 1-7.441 1.187c-13.746 0-24.89-11.697-24.89-26.125 0-13.619 9.928-24.804 22.602-26.016 3.64-8.146 11.355-13.887 20.39-14.331v-0.028c0-14.428 11.143-26.125 24.889-26.125 13.747 0 24.89 11.697 24.89 26.125z" clip-rule="evenodd" fill-rule="evenodd"/>
</mask>
<path d="m703.77 240.12c0 5.077-1.38 9.816-3.767 13.826a26.28 26.28 0 0 1 2.656 3.907 23.885 23.885 0 0 1 12.425-3.483c13.746 0 24.89 11.697 24.89 26.125s-11.144 26.125-24.89 26.125c-2.592 0-5.092-0.416-7.441-1.187h-64.313a23.819 23.819 0 0 1-7.441 1.187c-13.746 0-24.89-11.697-24.89-26.125 0-13.619 9.928-24.804 22.602-26.016 3.64-8.146 11.355-13.887 20.39-14.331v-0.028c0-14.428 11.143-26.125 24.889-26.125 13.747 0 24.89 11.697 24.89 26.125z" clip-rule="evenodd" fill="#fff" fill-rule="evenodd"/>
<path d="m700.004 253.951-.859-.512-.36.604.446.543.773-.635Zm2.656 3.907-.874.486.504.907.888-.538-.518-.855Zm4.984 47.58.312-.951-.152-.049h-.16v1Zm-64.313 0v-1h-.16l-.152.049.312.951Zm-9.729-50.954.095.995.58-.055.238-.532-.913-.408Zm20.39-14.331.049.999.951-.047v-.953l-1 .001Zm0-.028h-1v.001l1-.001Zm46.871 14.338c2.478-4.163 3.908-9.078 3.908-14.338h-2c0 4.894-1.33 9.457-3.626 13.314l1.718 1.024Zm2.671 2.909a27.332 27.332 0 0 0-2.757-4.056l-1.546 1.27a25.227 25.227 0 0 1 2.555 3.758l1.748-.972Zm11.551-3.997a24.874 24.874 0 0 0-12.943 3.628l1.036 1.71a22.887 22.887 0 0 1 11.907-3.338v-2Zm25.89 27.125c0-14.935-11.547-27.125-25.89-27.125v2c13.149 0 23.89 11.203 23.89 25.125h2Zm-25.89 27.125c14.343 0 25.89-12.19 25.89-27.125h-2c0 13.922-10.741 25.125-23.89 25.125v2Zm-7.753-1.237a24.799 24.799 0 0 0 7.753 1.237v-2c-2.485 0-4.879-.398-7.129-1.138l-.624 1.901Zm.312-1.95h-64.313v2h64.313v-2Zm-71.754 3.187c2.7 0 5.304-.433 7.753-1.237l-.624-1.901a22.777 22.777 0 0 1-7.129 1.138v2ZM610 280.5c0 14.935 11.546 27.125 25.89 27.125v-2c-13.149 0-23.89-11.203-23.89-25.125h-2Zm23.507-27.012C620.286 254.753 610 266.401 610 280.5h2c0-13.138 9.57-23.861 21.697-25.021l-.19-1.991Zm20.435-14.334c-9.441.465-17.472 6.462-21.253 14.922l1.826.816c3.5-7.831 10.899-13.316 19.526-13.74l-.099-1.998Zm-.95.972v.027l2-.001v-.028l-2 .002ZM678.881 213c-14.343 0-25.889 12.19-25.889 27.125h2c0-13.922 10.74-25.125 23.889-25.125v-2Zm25.89 27.125c0-14.935-11.546-27.125-25.89-27.125v2c13.149 0 23.89 11.203 23.89 25.125h2Z" fill="#CBCBCB" mask="url(#p)"/>
<mask id="o" fill="#fff">
<path d="M789.331 100.125c0 .328.005.654.017.978a24.434 24.434 0 0 0-9.068 4.994c-4.304-3.731-9.822-5.972-15.839-5.972-13.747 0-24.89 11.697-24.89 26.125 0 12.806 8.779 23.461 20.364 25.694v.431h88.246v-1.781c9.271-3.8 15.839-13.267 15.839-24.344 0-1.622-.141-3.21-.41-4.75.269-1.54.41-3.128.41-4.75 0-14.428-11.144-26.125-24.89-26.125-.563 0-1.121.02-1.675.058C833.829 80.921 824.795 74 814.22 74c-13.746 0-24.889 11.697-24.889 26.125Z" clip-rule="evenodd" fill-rule="evenodd"/>
</mask>
<path d="M789.331 100.125c0 .328.005.654.017.978a24.434 24.434 0 0 0-9.068 4.994c-4.304-3.731-9.822-5.972-15.839-5.972-13.747 0-24.89 11.697-24.89 26.125 0 12.806 8.779 23.461 20.364 25.694v.431h88.246v-1.781c9.271-3.8 15.839-13.267 15.839-24.344 0-1.622-.141-3.21-.41-4.75.269-1.54.41-3.128.41-4.75 0-14.428-11.144-26.125-24.89-26.125-.563 0-1.121.02-1.675.058C833.829 80.921 824.795 74 814.22 74c-13.746 0-24.889 11.697-24.889 26.125Z" clip-rule="evenodd" fill="#fff" fill-rule="evenodd"/>
<path d="m789.348 101.103.284.959.742-.22-.027-.774-.999.035Zm-9.068 4.994-.655.755.655.568.655-.568-.655-.755Zm-20.365 45.847h1v-.825l-.81-.157-.19.982Zm0 .431h-1v1h1v-1Zm88.246 0v1h1v-1h-1Zm0-1.781-.379-.925-.621.254v.671h1ZM863.59 121.5l-.985-.172-.031.172.031.172.985-.172Zm-26.155-30.817-.938.347.26.703.748-.052-.07-.998Zm-47.088 10.385a26.836 26.836 0 0 1-.016-.943h-2c0 .339.005.677.017 1.013l1.999-.07Zm-9.412 5.784a23.455 23.455 0 0 1 8.697-4.79l-.568-1.918a25.447 25.447 0 0 0-9.439 5.197l1.31 1.511Zm-16.494-5.727c5.762 0 11.051 2.145 15.184 5.727l1.31-1.511c-4.475-3.879-10.223-6.216-16.494-6.216v2Zm-23.89 25.125c0-13.922 10.741-25.125 23.89-25.125v-2c-14.344 0-25.89 12.19-25.89 27.125h2Zm19.554 24.712c-11.091-2.138-19.554-12.36-19.554-24.712h-2c0 13.261 9.095 24.347 21.175 26.676l.379-1.964Zm.81 1.413v-.431h-2v.431h2Zm3.526-1h-4.526v2h4.526v-2Zm31.678 0h-31.678v2h31.678v-2Zm42.991 0h-42.991v2h42.991v-2Zm9.051 0h-9.051v2h9.051v-2Zm-1-.781v1.781h2v-1.781h-2ZM863 126.25c0 10.68-6.331 19.776-15.218 23.419l.758 1.85c9.655-3.957 16.46-13.795 16.46-25.269h-2Zm-.395-4.578c.259 1.484.395 3.014.395 4.578h2c0-1.68-.146-3.325-.425-4.922l-1.97.344Zm.395-4.922c0 1.564-.136 3.094-.395 4.578l1.97.344c.279-1.597.425-3.242.425-4.922h-2Zm-23.89-25.125c13.149 0 23.89 11.203 23.89 25.125h2c0-14.935-11.546-27.125-25.89-27.125v2Zm-1.605.056a23.04 23.04 0 0 1 1.605-.056v-2c-.586 0-1.168.02-1.745.06l.14 1.996ZM814.22 75c10.119 0 18.802 6.624 22.277 16.03l1.876-.693C834.635 80.218 825.251 73 814.22 73v2Zm-23.889 25.125c0-13.922 10.74-25.125 23.889-25.125v-2c-14.343 0-25.889 12.19-25.889 27.125h2Z" fill="#CBCBCB" mask="url(#o)"/>
<mask id="n" fill="#fff">
<path d="m880.58 733.09c-7.778-14.385-22.502-24.09-39.386-24.09s-31.608 9.705-39.386 24.09c-22.426 2.823-39.809 22.861-39.809 47.16 0 24.63 17.86 44.882 40.729 47.265v0.235h126.71v-0.95c20.656-4.401 36.203-23.57 36.203-46.55 0-26.234-20.261-47.5-45.254-47.5-8.243 0-15.971 2.313-22.627 6.355-5.168-3.138-10.983-5.234-17.182-6.015z" clip-rule="evenodd" fill-rule="evenodd"/>
</mask>
<path d="m880.58 733.09c-7.778-14.385-22.502-24.09-39.386-24.09s-31.608 9.705-39.386 24.09c-22.426 2.823-39.809 22.861-39.809 47.16 0 24.63 17.86 44.882 40.729 47.265v0.235h126.71v-0.95c20.656-4.401 36.203-23.57 36.203-46.55 0-26.234-20.261-47.5-45.254-47.5-8.243 0-15.971 2.313-22.627 6.355-5.168-3.138-10.983-5.234-17.182-6.015z" clip-rule="evenodd" fill="#fff" fill-rule="evenodd"/>
<path d="m880.581 733.09-.88.476.245.452.51.064.125-.992Zm-78.772 0 .125.992.51-.064.245-.452-.88-.476Zm.92 94.425h1v-.901l-.897-.093-.103.994Zm0 .235h-1v1h1v-1Zm126.712 0v1h1v-1h-1Zm0-.95-.209-.978-.791.168v.81h1Zm-31.678-87.695-.519.854.519.316.519-.316-.519-.854ZM841.195 710c16.485 0 30.888 9.475 38.506 23.566l1.759-.951C873.524 717.935 858.478 708 841.195 708v2Zm-38.506 23.566C810.307 719.475 824.71 710 841.195 710v-2c-17.283 0-32.329 9.935-40.266 24.615l1.76.951ZM763 780.25c0-23.827 17.039-43.412 38.934-46.168l-.25-1.984C778.728 734.988 761 755.478 761 780.25h2Zm39.832 46.271C780.507 824.194 763 804.402 763 780.25h-2c0 25.109 18.214 45.82 41.625 48.26l.207-1.989Zm.897 1.229v-.235h-2v.235h2Zm3.525-1h-4.525v2h4.525v-2Zm67.882 0h-67.882v2h67.882v-2Zm45.254 0h-45.254v2h45.254v-2Zm9.051 0h-9.051v2h9.051v-2Zm-1 .05v.95h2v-.95h-2Zm36.203-46.55c0 22.531-15.239 41.274-35.412 45.572l.417 1.956c21.14-4.504 36.995-24.099 36.995-47.528h-2Zm-44.254-46.5c24.396 0 44.254 20.773 44.254 46.5h2c0-26.74-20.664-48.5-46.254-48.5v2Zm-22.108 6.209c6.506-3.95 14.055-6.209 22.108-6.209v-2c-8.433 0-16.34 2.367-23.146 6.5l1.038 1.709Zm-17.826-5.877c6.055.763 11.736 2.81 16.788 5.877l1.038-1.709c-5.284-3.209-11.232-5.353-17.576-6.152l-.25 1.984Z" fill="#CBCBCB" mask="url(#n)"/>
<mask id="m" fill="#fff">
<path d="m1135.8 748.12c0 5.077-1.38 9.816-3.77 13.826 1 1.211 1.89 2.518 2.66 3.907 3.66-2.215 7.9-3.483 12.42-3.483 13.75 0 24.89 11.697 24.89 26.125s-11.14 26.125-24.89 26.125c-2.59 0-5.09-0.416-7.44-1.187h-64.31a23.822 23.822 0 0 1-7.44 1.187c-13.75 0-24.89-11.697-24.89-26.125 0-13.619 9.93-24.804 22.6-26.016 3.64-8.146 11.36-13.887 20.39-14.331v-0.028c0-14.428 11.15-26.125 24.89-26.125 13.75 0 24.89 11.697 24.89 26.125z" clip-rule="evenodd" fill-rule="evenodd"/>
</mask>
<path d="m1135.8 748.12c0 5.077-1.38 9.816-3.77 13.826 1 1.211 1.89 2.518 2.66 3.907 3.66-2.215 7.9-3.483 12.42-3.483 13.75 0 24.89 11.697 24.89 26.125s-11.14 26.125-24.89 26.125c-2.59 0-5.09-0.416-7.44-1.187h-64.31a23.822 23.822 0 0 1-7.44 1.187c-13.75 0-24.89-11.697-24.89-26.125 0-13.619 9.93-24.804 22.6-26.016 3.64-8.146 11.36-13.887 20.39-14.331v-0.028c0-14.428 11.15-26.125 24.89-26.125 13.75 0 24.89 11.697 24.89 26.125z" clip-rule="evenodd" fill="#fff" fill-rule="evenodd"/>
<path d="m1132 761.951-.86-.512-.35.604.44.543.77-.635Zm2.66 3.907-.87.486.5.907.89-.538-.52-.855Zm4.98 47.58.32-.951-.16-.049h-.16v1Zm-64.31 0v-1h-.16l-.15.049.31.951Zm-9.73-50.954.1.995.58-.055.23-.532-.91-.408Zm20.39-14.331.05.999.95-.047v-.953l-1 .001Zm0-.028h-1v.001l1-.001Zm46.87 14.338c2.48-4.163 3.91-9.078 3.91-14.338h-2c0 4.894-1.33 9.457-3.63 13.314l1.72 1.024Zm2.67 2.909a27.368 27.368 0 0 0-2.75-4.056l-1.55 1.27a25.487 25.487 0 0 1 2.56 3.758l1.74-.972Zm11.55-3.997c-4.71 0-9.13 1.321-12.94 3.628l1.04 1.71a22.86 22.86 0 0 1 11.9-3.338v-2Zm25.89 27.125c0-14.935-11.54-27.125-25.89-27.125v2c13.15 0 23.89 11.203 23.89 25.125h2Zm-25.89 27.125c14.35 0 25.89-12.19 25.89-27.125h-2c0 13.922-10.74 25.125-23.89 25.125v2Zm-7.75-1.237c2.45.804 5.06 1.237 7.75 1.237v-2c-2.48 0-4.87-.398-7.12-1.138l-.63 1.901Zm.31-1.95h-64.31v2h64.31v-2Zm-71.75 3.187c2.7 0 5.3-.433 7.75-1.237l-.62-1.901c-2.25.74-4.65 1.138-7.13 1.138v2ZM1042 788.5c0 14.935 11.55 27.125 25.89 27.125v-2c-13.15 0-23.89-11.203-23.89-25.125h-2Zm23.51-27.012c-13.22 1.265-23.51 12.913-23.51 27.012h2c0-13.138 9.57-23.861 21.7-25.021l-.19-1.991Zm20.43-14.334c-9.44.465-17.47 6.462-21.25 14.922l1.82.816c3.5-7.831 10.9-13.316 19.53-13.74l-.1-1.998Zm-.95.972v.027l2-.001v-.028l-2 .002ZM1110.88 721c-14.34 0-25.89 12.19-25.89 27.125h2c0-13.922 10.74-25.125 23.89-25.125v-2Zm25.89 27.125c0-14.935-11.55-27.125-25.89-27.125v2c13.15 0 23.89 11.203 23.89 25.125h2Z" fill="#CBCBCB" mask="url(#m)"/>
<mask id="l" fill="#fff">
<path d="M1221.33 608.125c0 .328.01.654.02.978a24.388 24.388 0 0 0-9.07 4.994c-4.3-3.731-9.82-5.972-15.84-5.972-13.75 0-24.89 11.697-24.89 26.125 0 12.806 8.78 23.461 20.37 25.694v.431h88.24v-1.781c9.27-3.8 15.84-13.267 15.84-24.344 0-1.622-.14-3.21-.41-4.75.27-1.54.41-3.128.41-4.75 0-14.428-11.14-26.125-24.89-26.125-.56 0-1.12.02-1.68.058-3.6-9.762-12.64-16.683-23.21-16.683-13.75 0-24.89 11.697-24.89 26.125Z" clip-rule="evenodd" fill-rule="evenodd"/>
</mask>
<path d="M1221.33 608.125c0 .328.01.654.02.978a24.388 24.388 0 0 0-9.07 4.994c-4.3-3.731-9.82-5.972-15.84-5.972-13.75 0-24.89 11.697-24.89 26.125 0 12.806 8.78 23.461 20.37 25.694v.431h88.24v-1.781c9.27-3.8 15.84-13.267 15.84-24.344 0-1.622-.14-3.21-.41-4.75.27-1.54.41-3.128.41-4.75 0-14.428-11.14-26.125-24.89-26.125-.56 0-1.12.02-1.68.058-3.6-9.762-12.64-16.683-23.21-16.683-13.75 0-24.89 11.697-24.89 26.125Z" clip-rule="evenodd" fill="#fff" fill-rule="evenodd"/>
<path d="m1221.35 609.103.28.959.74-.22-.02-.774-1 .035Zm-9.07 4.994-.66.755.66.568.65-.568-.65-.755Zm-20.36 45.847h1v-.825l-.82-.157-.18.982Zm0 .431h-1v1h1v-1Zm88.24 0v1h1v-1h-1Zm0-1.781-.38-.925-.62.254v.671h1Zm15.43-29.094-.99-.172-.03.172.03.172.99-.172Zm-26.16-30.817-.93.347.26.703.74-.052-.07-.998Zm-47.08 10.385c-.01-.313-.02-.627-.02-.943h-2c0 .339.01.677.02 1.013l2-.07Zm-9.42 5.784c2.53-2.185 5.48-3.835 8.7-4.79l-.57-1.918a25.538 25.538 0 0 0-9.44 5.197l1.31 1.511Zm-16.49-5.727c5.76 0 11.05 2.145 15.18 5.727l1.31-1.511c-4.47-3.879-10.22-6.216-16.49-6.216v2Zm-23.89 25.125c0-13.922 10.74-25.125 23.89-25.125v-2c-14.34 0-25.89 12.19-25.89 27.125h2Zm19.55 24.712c-11.09-2.138-19.55-12.36-19.55-24.712h-2c0 13.261 9.1 24.347 21.18 26.676l.37-1.964Zm.82 1.413v-.431h-2v.431h2Zm3.52-1h-4.52v2h4.52v-2Zm31.68 0h-31.68v2h31.68v-2Zm42.99 0h-42.99v2h42.99v-2Zm9.05 0h-9.05v2h9.05v-2Zm-1-.781v1.781h2v-1.781h-2ZM1295 634.25c0 10.68-6.33 19.776-15.22 23.419l.76 1.85c9.66-3.957 16.46-13.795 16.46-25.269h-2Zm-.4-4.578c.26 1.484.4 3.014.4 4.578h2c0-1.68-.15-3.325-.43-4.922l-1.97.344Zm.4-4.922c0 1.564-.14 3.094-.4 4.578l1.97.344c.28-1.597.43-3.242.43-4.922h-2Zm-23.89-25.125c13.15 0 23.89 11.203 23.89 25.125h2c0-14.935-11.55-27.125-25.89-27.125v2Zm-1.61.056c.54-.037 1.07-.056 1.61-.056v-2c-.59 0-1.17.02-1.74.061l.13 1.995ZM1246.22 583c10.12 0 18.8 6.624 22.28 16.03l1.87-.693c-3.73-10.119-13.12-17.337-24.15-17.337v2Zm-23.89 25.125c0-13.922 10.74-25.125 23.89-25.125v-2c-14.34 0-25.89 12.19-25.89 27.125h2Z" fill="#CBCBCB" mask="url(#l)"/>
<path d="M1105.82 476.3h-.06l-.05.013a47.026 47.026 0 0 1-10.52 1.187c-25.79 0-46.69-20.864-46.69-46.6s20.9-46.6 46.69-46.6c8.02 0 15.56 2.018 22.16 5.573l.25.136.24-.149a46.558 46.558 0 0 1 24.23-6.76c.88 0 1.76.024 2.62.072l.37.02.13-.344c6.61-17.723 23.71-30.348 43.77-30.348 21.1 0 38.93 13.968 44.71 33.144l.07.238.24.086c17.82 6.564 30.52 23.668 30.52 43.732 0 24.839-19.47 45.14-44.01 46.525l-.47.026v.049h-114.2Z" fill="#fff" stroke="#CBCBCB"/>
</g>
<defs>
<linearGradient id="u" x1="720" x2="720" y2="1024" gradientUnits="userSpaceOnUse">
<stop stop-color="#14A398" offset="0"/>
<stop stop-color="#46A1A9" stop-opacity=".83" offset=".875"/>
</linearGradient>
<clipPath id="v">
<path d="M0 0h1440v1024H0z" fill="#fff"/>
</clipPath>
</defs>
</svg>
