<?xml version="1.0" encoding="UTF-8"?>
<svg preserveAspectRatio="none" version="1.1" viewBox="0 0 1440 999" xmlns="http://www.w3.org/2000/svg">
<g mask="url(#a)">
<rect width="1440" height="999" fill="rgba(170, 240, 236, 1)"/>
<path d="m1488 999h-1488v-497.33q126.87 54.87 72 181.75-11.88-131.89 120-143.77 12.63-59.37 72-46.74 68.37-51.63 120 16.74 112.27-7.73 120 104.54 78.28-41.71 120 36.57 72.75-47.25 120 25.5 43.38-28.62 72 14.77 73.19-46.81 120 26.38 2.91-117.09 120-114.18-5.42-77.42 72-82.85 54.21-65.78 120-11.57 95.94-24.06 120 71.89 86.42-33.57 120 52.85z" fill="rgba(40, 161, 152, 1)"/>
<path d="m1512 999h-1512v-214.62q109.4-10.6 120 98.8 0.81-119.19 120-118.37-6.7-78.7 72-85.41 81.64 9.64 72 91.28 118.87-1.14 120 117.73 11.98-108.02 120-96.04-27.81-99.81 72-127.62 86.23-33.77 120 52.45 101.72 29.72 72 131.45 76.03-43.97 120 32.06 2.53-69.46 72-66.93 54.72-65.28 120-10.56 15.74-104.26 120-88.52 41.17-30.82 72 10.35 36.42-83.58 120-47.16z" fill="rgba(89, 185, 178, 1)"/>
<path d="m1560 999h-1560v-111.16q31.77-88.23 120-56.46 41.76-30.24 72 11.52 85.9-34.1 120 51.8 89.41 17.42 72 106.83 53.98-18.03 72 35.95 11.33-108.67 120-97.35 4.68-67.32 72-62.64 49.05-70.95 120-21.9 117.33 45.33 72 162.66-38.75-110.75 72-149.51 41.75-78.25 120-36.5 42.43-29.57 72 12.87 62.88-9.12 72 53.75 50.88-21.12 72 29.75 38.66-81.33 120-42.67 51.69-20.31 72 31.39 97.7-22.29 120 75.41z" fill="rgba(204, 245, 242, 1)"/>
</g>
<defs>
<mask id="a">
<rect width="1440" height="999" fill="#fff"/>
</mask>
</defs>
</svg>
