<svg xmlns="http://www.w3.org/2000/svg" width="1024" height="768" fill="none" viewBox="0 0 1024 768">
  <g clip-path="url(#a)">
    <path fill="#fff" d="M0 0h1024v768H0z"/>
    <path fill="url(#b)" fill-opacity=".73" d="M1024.43-4H-.327v768.418H1024.43V-4Z"/>
    <mask id="c" fill="#fff">
      <path fill-rule="evenodd" d="M1032 494.249V768H0V433.097C38.173 410.786 82.594 398 130 398c22.892 0 45.087 2.981 66.219 8.577A256.377 256.377 0 0 1 252.204 384h135.592c31.289 8.499 60.214 22.738 85.575 41.516C499.312 416.751 527.101 412 556 412c39.027 0 76.031 8.666 109.191 24.177C697.217 421.923 732.683 414 770 414c12.737 0 25.258.923 37.5 2.706A260.078 260.078 0 0 1 845 414c73.597 0 139.997 30.816 187 80.249Z" clip-rule="evenodd"/>
    </mask>
    <path fill="#fff" fill-opacity=".39" fill-rule="evenodd" d="M1032 494.249V768H0V433.097C38.173 410.786 82.594 398 130 398c22.892 0 45.087 2.981 66.219 8.577A256.377 256.377 0 0 1 252.204 384h135.592c31.289 8.499 60.214 22.738 85.575 41.516C499.312 416.751 527.101 412 556 412c39.027 0 76.031 8.666 109.191 24.177C697.217 421.923 732.683 414 770 414c12.737 0 25.258.923 37.5 2.706A260.078 260.078 0 0 1 845 414c73.597 0 139.997 30.816 187 80.249Z" clip-rule="evenodd"/>
    <path fill="#CBCBCB" fill-opacity=".39" d="M1032 494.249h1v-.399l-.28-.29-.72.689ZM1032 768v1h1v-1h-1ZM0 768h-1v1h1v-1Zm0-334.903-.505-.863-.495.289v.574h1Zm196.219-26.52-.256.967.386.102.351-.192-.481-.877ZM252.204 384v-1h-.134l-.129.035.263.965Zm135.592 0 .263-.965-.129-.035h-.134v1Zm85.575 41.516-.595.803.42.311.495-.167-.32-.947Zm191.82 10.661-.424.906.414.194.417-.186-.407-.914ZM807.5 416.706l-.144.989.144.021.144-.021-.144-.989Zm223.5 77.543V768h2V494.249h-2ZM1032 767H0v2h1032v-2ZM1 768V433.097h-2V768h2ZM.505 433.961C38.529 411.736 82.775 399 130 399v-2c-47.588 0-92.182 12.835-130.505 35.234l1.01 1.727ZM130 399c22.805 0 44.914 2.97 65.963 8.544l.512-1.934C175.26 399.993 152.979 397 130 397v2Zm66.7 8.454a255.354 255.354 0 0 1 55.766-22.489l-.525-1.93a257.334 257.334 0 0 0-56.202 22.665l.961 1.754ZM252.204 385h135.592v-2H252.204v2Zm135.33-.035c31.166 8.466 59.979 22.649 85.242 41.354l1.19-1.607c-25.459-18.851-54.497-33.145-85.907-41.677l-.525 1.93Zm86.157 41.498C499.53 417.733 527.211 413 556 413v-2c-29.009 0-56.906 4.77-82.949 13.568l.64 1.895ZM556 413c38.878 0 75.737 8.632 108.767 24.083l.848-1.811C632.325 419.699 595.177 411 556 411v2Zm109.598 24.091C697.498 422.892 732.826 415 770 415v-2c-37.46 0-73.064 7.953-105.216 22.264l.814 1.827ZM770 415c12.688 0 25.161.919 37.356 2.695l.288-1.979A261.075 261.075 0 0 0 770 413v2Zm37.644 2.695A259.103 259.103 0 0 1 845 415v-2c-12.785 0-25.354.926-37.644 2.716l.288 1.979ZM845 415c73.312 0 139.453 30.696 186.28 79.938l1.44-1.378C985.541 443.937 918.882 413 845 413v2Z" mask="url(#c)"/>
    <mask id="d" fill="#fff">
      <path fill-rule="evenodd" d="M812.39 768H0V613.669c86.746-39.888 191.73-61.982 325.693-56.965C511.112 567.463 689.327 619.293 812.39 768Z" clip-rule="evenodd"/>
    </mask>
    <path fill="#28A198" fill-opacity=".54" fill-rule="evenodd" d="M812.39 768H0V613.669c86.746-39.888 191.73-61.982 325.693-56.965C511.112 567.463 689.327 619.293 812.39 768Z" clip-rule="evenodd"/>
    <path fill="#378875" d="M812.39 768v1h2.125l-1.355-1.638-.77.638ZM0 768h-1v1h1v-1Zm0-154.331-.418-.908-.582.268v.64h1Zm325.693-56.965.058-.998-.01-.001h-.01l-.038.999ZM812.39 767H0v2h812.39v-2ZM1 768V613.669h-2V768h2ZM.418 614.578c86.585-39.815 191.41-61.887 325.238-56.875l.075-1.998C191.632 550.683 86.489 572.798-.418 612.761l.836 1.817Zm325.217-56.876c185.289 10.751 363.175 62.534 485.984 210.936l1.541-1.276C689.844 618.349 511.3 566.472 325.751 555.706l-.116 1.996Z" mask="url(#d)"/>
    <path fill="#8A5A5A" d="M164 628.957 181.927 613l3.989 4.482-17.927 15.957-3.989-4.482Z"/>
    <path fill="#9E5454" d="M156 604h16v58h-16v-58Z"/>
    <path fill="#006A62" d="M144.5 620c9.102 0 16.883-5.656 20.02-13.645a21.377 21.377 0 0 0 8.082 3.293C174.386 615.635 179.933 620 186.5 620c8.008 0 14.5-6.492 14.5-14.5 0-3.94-1.572-7.513-4.122-10.127A21.462 21.462 0 0 0 198 588.5c0-10.901-8.112-19.906-18.629-21.31-3.65-6.668-10.733-11.19-18.871-11.19-11.874 0-21.5 9.626-21.5 21.5l.001.21C129.791 580.139 123 588.527 123 598.5c0 11.874 9.626 21.5 21.5 21.5Z"/>
    <path fill="#F17B7B" d="M386.14 523.635h7.07V583h-7.07v-59.365Z"/>
    <path fill="#5DB09C" d="M406 531.702 389 473l-17 58.702h3.471L372 543.689h4.288L372 558.497h34l-4.288-14.808H406l-3.471-11.987H406Z"/>
    <mask id="e" fill="#fff">
      <path fill-rule="evenodd" d="M1032 587.469V768H15.266C278.718 487.431 675.593 490.503 1032 587.469Z" clip-rule="evenodd"/>
    </mask>
    <path fill="#28A198" fill-rule="evenodd" d="M1032 587.469V768H15.266C278.718 487.431 675.593 490.503 1032 587.469Z" clip-rule="evenodd"/>
    <path fill="#37776F" d="M1032 587.469h1v-.764l-.74-.201-.26.965ZM1032 768v1h1v-1h-1ZM15.266 768l-.73-.685-1.58 1.685h2.31v-1ZM1031 587.469V768h2V587.469h-2ZM1032 767H15.266v2H1032v-2ZM15.995 768.685c263.059-280.15 659.438-277.189 1015.745-180.251l.52-1.93C675.752 489.51 278.382 486.328 14.537 767.315l1.458 1.37Z" mask="url(#e)"/>
    <mask id="f" fill="#fff">
      <path fill-rule="evenodd" d="M163.406 140.143C159.969 134.086 153.462 130 146 130c-7.462 0-13.969 4.086-17.406 10.143C118.683 141.332 111 149.769 111 160c0 10.371 7.893 18.898 18 19.901V180h56v-.4c9.129-1.853 16-9.924 16-19.6 0-11.046-8.954-20-20-20-3.643 0-7.058.974-10 2.676a19.867 19.867 0 0 0-7.594-2.533Z" clip-rule="evenodd"/>
    </mask>
    <path fill="#fff" fill-rule="evenodd" d="M163.406 140.143C159.969 134.086 153.462 130 146 130c-7.462 0-13.969 4.086-17.406 10.143C118.683 141.332 111 149.769 111 160c0 10.371 7.893 18.898 18 19.901V180h56v-.4c9.129-1.853 16-9.924 16-19.6 0-11.046-8.954-20-20-20-3.643 0-7.058.974-10 2.676a19.867 19.867 0 0 0-7.594-2.533Z" clip-rule="evenodd"/>
    <path fill="#CBCBCB" d="m163.406 140.143-.869.494.249.439.501.06.119-.993Zm-34.812 0 .119.993.501-.06.249-.439-.869-.494Zm.406 39.758h1v-.905l-.901-.09-.099.995Zm0 .099h-1v1h1v-1Zm56 0v1h1v-1h-1Zm0-.4-.199-.98-.801.163v.817h1Zm-14-36.924-.501.865.501.29.501-.29-.501-.865ZM146 131c7.087 0 13.27 3.88 16.537 9.637l1.739-.987C160.669 133.293 153.836 129 146 129v2Zm-16.537 9.637C132.73 134.88 138.913 131 146 131v-2c-7.836 0-14.669 4.293-18.276 10.65l1.739.987ZM112 160c0-9.719 7.298-17.735 16.713-18.864l-.239-1.986C118.067 140.399 110 149.256 110 160h2Zm17.099 18.906C119.499 177.953 112 169.852 112 160h-2c0 10.89 8.288 19.843 18.901 20.896l.198-1.99ZM130 180v-.099h-2V180h2Zm1-1h-2v2h2v-2Zm30 0h-30v2h30v-2Zm20 0h-20v2h20v-2Zm4 0h-4v2h4v-2Zm-1 .6v.4h2v-.4h-2Zm16-19.6c0 9.191-6.527 16.86-15.199 18.62l.398 1.96C194.785 178.634 202 170.161 202 160h-2Zm-19-19c10.493 0 19 8.507 19 19h2c0-11.598-9.402-21-21-21v2Zm-9.499 2.541A18.906 18.906 0 0 1 181 141v-2a20.914 20.914 0 0 0-10.501 2.81l1.002 1.731Zm-8.214-2.405a18.862 18.862 0 0 1 7.212 2.405l1.002-1.731a20.865 20.865 0 0 0-7.975-2.66l-.239 1.986Z" mask="url(#f)"/>
    <mask id="g" fill="#fff">
      <path fill-rule="evenodd" d="M276 198c0 2.138-.61 4.133-1.665 5.821.439.51.833 1.061 1.174 1.645A10.956 10.956 0 0 1 281 204c6.075 0 11 4.925 11 11s-4.925 11-11 11c-1.146 0-2.25-.175-3.289-.5h-28.422c-1.039.325-2.143.5-3.289.5-6.075 0-11-4.925-11-11 0-5.734 4.388-10.444 9.989-10.954a10.502 10.502 0 0 1 9.011-6.034V198c0-6.075 4.925-11 11-11s11 4.925 11 11Z" clip-rule="evenodd"/>
    </mask>
    <path fill="#fff" fill-rule="evenodd" d="M276 198c0 2.138-.61 4.133-1.665 5.821.439.51.833 1.061 1.174 1.645A10.956 10.956 0 0 1 281 204c6.075 0 11 4.925 11 11s-4.925 11-11 11c-1.146 0-2.25-.175-3.289-.5h-28.422c-1.039.325-2.143.5-3.289.5-6.075 0-11-4.925-11-11 0-5.734 4.388-10.444 9.989-10.954a10.502 10.502 0 0 1 9.011-6.034V198c0-6.075 4.925-11 11-11s11 4.925 11 11Z" clip-rule="evenodd"/>
    <path fill="#CBCBCB" d="m274.335 203.821-.848-.529-.39.624.481.558.757-.653Zm1.174 1.645-.864.504.502.86.862-.497-.5-.867Zm2.202 20.034.299-.954-.146-.046h-.153v1Zm-28.422 0v-1h-.153l-.146.046.299.954Zm-4.3-21.454.091.996.571-.052.243-.519-.905-.425Zm9.011-6.034.047.999.953-.045v-.955l-1 .001Zm0-.012h-1 1Zm21.183 6.351A11.94 11.94 0 0 0 277 198h-2a9.95 9.95 0 0 1-1.513 5.292l1.696 1.059Zm1.19.612a11.925 11.925 0 0 0-1.281-1.794l-1.514 1.305c.399.464.757.965 1.067 1.496l1.728-1.007ZM281 203c-2.18 0-4.227.582-5.991 1.6l1 1.733A9.942 9.942 0 0 1 281 205v-2Zm12 12c0-6.627-5.373-12-12-12v2c5.523 0 10 4.477 10 10h2Zm-12 12c6.627 0 12-5.373 12-12h-2c0 5.523-4.477 10-10 10v2Zm-3.587-.546c1.134.355 2.339.546 3.587.546v-2a9.997 9.997 0 0 1-2.99-.454l-.597 1.908Zm.298-1.954h-28.422v2h28.422v-2ZM246 227c1.248 0 2.453-.191 3.587-.546l-.597-1.908A9.997 9.997 0 0 1 246 225v2Zm-12-12c0 6.627 5.373 12 12 12v-2c-5.523 0-10-4.477-10-10h-2Zm10.898-11.95C238.787 203.607 234 208.744 234 215h2c0-5.212 3.989-9.494 9.08-9.958l-.182-1.992Zm9.055-6.037c-4.375.205-8.108 2.854-9.87 6.608l1.811.85a9.502 9.502 0 0 1 8.153-5.46l-.094-1.998ZM253 198v.012l2-.001V198h-2Zm12-12c-6.627 0-12 5.373-12 12h2c0-5.523 4.477-10 10-10v-2Zm12 12c0-6.627-5.373-12-12-12v2c5.523 0 10 4.477 10 10h2Z" mask="url(#g)"/>
    <mask id="h" fill="#fff">
      <path fill-rule="evenodd" d="M314 125c0 .138.003.275.008.412a10.976 10.976 0 0 0-4.008 2.102 10.96 10.96 0 0 0-7-2.514c-6.075 0-11 4.925-11 11 0 5.392 3.88 9.878 9 10.819V147h39v-.75c4.097-1.6 7-5.586 7-10.25 0-.683-.062-1.351-.181-2 .119-.649.181-1.317.181-2 0-6.075-4.925-11-11-11-.249 0-.496.008-.74.025-1.594-4.111-5.587-7.025-10.26-7.025-6.075 0-11 4.925-11 11Z" clip-rule="evenodd"/>
    </mask>
    <path fill="#fff" fill-rule="evenodd" d="M314 125c0 .138.003.275.008.412a10.976 10.976 0 0 0-4.008 2.102 10.96 10.96 0 0 0-7-2.514c-6.075 0-11 4.925-11 11 0 5.392 3.88 9.878 9 10.819V147h39v-.75c4.097-1.6 7-5.586 7-10.25 0-.683-.062-1.351-.181-2 .119-.649.181-1.317.181-2 0-6.075-4.925-11-11-11-.249 0-.496.008-.74.025-1.594-4.111-5.587-7.025-10.26-7.025-6.075 0-11 4.925-11 11Z" clip-rule="evenodd"/>
    <path fill="#CBCBCB" d="m314.008 125.412.271.962.757-.213-.029-.786-.999.037ZM310 127.514l-.637.771.637.526.637-.526-.637-.771Zm-9 19.305h1v-.833l-.819-.151-.181.984Zm0 .181h-1v1h1v-1Zm39 0v1h1v-1h-1Zm0-.75-.364-.931-.636.248v.683h1Zm6.819-12.25-.984-.181-.033.181.033.181.984-.181Zm-11.559-12.975-.933.361.266.685.733-.049-.066-.997Zm-20.253 4.35A9.311 9.311 0 0 1 315 125h-2c0 .15.003.3.008.449l1.999-.074Zm-4.37 2.91a9.974 9.974 0 0 1 3.642-1.911l-.543-1.925a11.997 11.997 0 0 0-4.373 2.294l1.274 1.542ZM303 126c2.418 0 4.634.857 6.363 2.285l1.274-1.542A11.958 11.958 0 0 0 303 124v2Zm-10 10c0-5.523 4.477-10 10-10v-2c-6.627 0-12 5.373-12 12h2Zm8.181 9.835C296.527 144.98 293 140.901 293 136h-2c0 5.883 4.233 10.776 9.819 11.802l.362-1.967ZM302 147v-.181h-2V147h2Zm1-1h-2v2h2v-2Zm14 0h-14v2h14v-2Zm19 0h-19v2h19v-2Zm4 0h-4v2h4v-2Zm-1 .25v.75h2v-.75h-2Zm7-10.25c0 4.238-2.637 7.863-6.364 9.319l.728 1.863C344.832 145.437 348 141.09 348 136h-2Zm-.165-1.819c.108.589.165 1.197.165 1.819h2c0-.744-.068-1.473-.198-2.181l-1.967.362ZM346 132c0 .622-.057 1.23-.165 1.819l1.967.362c.13-.708.198-1.437.198-2.181h-2Zm-10-10c5.523 0 10 4.477 10 10h2c0-6.627-5.373-12-12-12v2Zm-.674.022c.223-.014.447-.022.674-.022v-2c-.271 0-.54.009-.807.027l.133 1.995ZM325 115c4.247 0 7.878 2.648 9.327 6.386l1.865-.723C334.454 116.181 330.1 113 325 113v2Zm-10 10c0-5.523 4.477-10 10-10v-2c-6.627 0-12 5.373-12 12h2Z" mask="url(#h)"/>
    <path fill="#fff" stroke="#CBCBCB" d="M618.817 216.3h-.057l-.055.013a46.962 46.962 0 0 1-10.518 1.187c-25.785 0-46.687-20.864-46.687-46.6s20.902-46.6 46.687-46.6a46.54 46.54 0 0 1 22.158 5.573l.252.136.245-.149c7.064-4.289 15.358-6.76 24.231-6.76.88 0 1.754.024 2.622.072l.367.02.129-.344c6.608-17.723 23.712-30.348 43.769-30.348 21.097 0 38.926 13.968 44.711 33.144l.072.238.234.086c17.819 6.564 30.523 23.668 30.523 43.732 0 24.839-19.471 45.14-44.01 46.525l-.472.026v.049H618.817Z"/>
    <path fill="#8A5A5A" d="m347.205 668.796 37.693-33.419 8.388 9.387-37.693 33.419-8.388-9.387Z"/>
    <path fill="#9E5454" d="M330.385 616.528h33.641V738h-33.641V616.528Z"/>
    <path fill="#006A62" d="M306.205 650.038c19.137 0 35.497-11.845 42.093-28.577a45.042 45.042 0 0 0 16.993 6.895c3.751 12.539 15.415 21.682 29.222 21.682 16.837 0 30.487-13.596 30.487-30.368 0-8.252-3.304-15.735-8.667-21.209a44.815 44.815 0 0 0 2.359-14.395c0-22.829-17.056-41.691-39.168-44.63C371.848 525.47 356.958 516 339.846 516c-24.966 0-45.205 20.16-45.205 45.028l.002.439C275.278 566.556 261 584.122 261 605.009c0 24.869 20.239 45.029 45.205 45.029Z"/>
    <path fill="#F17B7B" d="M534.874 548.127h11.437V662h-11.437V548.127Z"/>
    <path fill="#5DB09C" d="M567 563.601 539.5 451 512 563.601h5.616L512 586.595h6.937L512 614.998h55l-6.937-28.403H567l-5.616-22.994H567Z"/>
    <path fill="#F17B7B" d="M849.874 624.667h11.437V738h-11.437V624.667Z"/>
    <path fill="#5DB09C" d="M882 640.067 854.5 528 827 640.067h5.616L827 662.952h6.937L827 691.221h55l-6.937-28.269H882l-5.616-22.885H882Z"/>
  </g>
  <defs>
    <linearGradient id="b" x1="512.053" x2="512.053" y1="-4" y2="764.418" gradientUnits="userSpaceOnUse">
      <stop offset="0" stop-color="#60E0D7"/>
      <stop offset=".72" stop-color="#B4F9FF" stop-opacity="0"/>
    </linearGradient>
    <clipPath id="a">
      <path fill="#fff" d="M0 0h1024v768H0z"/>
    </clipPath>
  </defs>
</svg>
