<?xml version="1.0" encoding="UTF-8"?>
<svg preserveAspectRatio="none" version="1.1" viewBox="0 0 1440 999" xmlns="http://www.w3.org/2000/svg" transform="rotate(180)">
<g mask="url(#a)">
<rect width="1440" height="999" fill="rgba(170, 240, 236, 1)"/>
<path d="m1536 999h-1536v-252.59q89.99-30.01 120 59.99 19.41-52.59 72-33.18 42.97-77.03 120-34.06 99.54-20.46 120 79.09 47.05-72.95 120-25.91 8.76-111.24 120-102.48 26.18-45.82 72-19.64 57.54-14.46 72 43.08 56.02-15.98 72 40.03 58.69-13.31 72 45.37 51.75-68.25 120-16.51-16.33-88.33 72-104.66 65.24-6.76 72 58.49 83.66-36.34 120 47.32 22.62-49.38 72-26.76 37.04-82.95 120-45.91z" fill="rgba(40, 161, 152, 1)"/>
<path d="m1512 999h-1512v-167.12q96.98-23.02 120 73.96 20.08-51.92 72-31.84 54.89-65.11 120-10.22 50.59-69.41 120-18.83 100.01-19.99 120 80.02 5.41-114.59 120-109.18 45.86-74.15 120-28.29 70.3-1.7 72 68.6 95.26-24.74 120 70.52 41.88-78.12 120-36.24-3.6-75.6 72-79.2 22.74-49.26 72-26.52 41.22-30.78 72 10.45 55.94-16.06 72 39.88 79.45-40.55 120 38.9z" fill="rgba(89, 185, 178, 1)"/>
<path d="m1488 999h-1488v-88.93q67.63-52.37 120 15.26 56.27-15.73 72 40.54 63.64-8.36 72 55.29 42.07-29.93 72 12.15 2.13-69.87 72-67.74 36.04-83.95 120-47.91 53.11-18.89 72 34.22 34.03-85.97 120-51.94 45.15-26.84 72 18.31 81.81 9.81 72 91.61 75.69-44.31 120 31.38 16.38-103.62 120-87.25 29.42-90.58 120-61.16 43.65-28.34 72 15.31 57.47-14.52 72 42.95 32.42-87.58 120-55.16z" fill="rgba(204, 245, 242, 1)"/>
</g>
<defs>
<mask id="a">
<rect width="1440" height="999" fill="#fff"/>
</mask>
</defs>
</svg>
